<svg height="1066.6666pt" viewBox="-33 -33 1066.6666 1066.6666" width="1066.6666pt" xmlns="http://www.w3.org/2000/svg"><path d="m58.527344 173.761719h824.21875v58.59375h-824.21875zm0 0"/><path d="m58.527344 349.542969h824.21875v-58.59375h-824.21875zm0 0"/><path d="m58.527344 466.730469h470.703125c0-21.339844 5.761719-41.34375 15.761719-58.59375h-486.464844zm0 0"/><path d="m58.527344 822.199219h-31.25c-16.183594 0-29.296875 13.113281-29.296875 29.296875 0 16.175781 13.113281 29.296875 29.296875 29.296875h501.953125v-355.46875h-470.703125zm0 0"/><path d="m27.277344 56.574219h31.25v58.59375h824.21875v-58.59375h31.25c16.179687 0 29.296875-13.117188 29.296875-29.296875 0-16.183594-13.117188-29.296875-29.296875-29.296875h-886.71875c-16.183594 0-29.296875 13.113281-29.296875 29.296875 0 16.179687 13.113281 29.296875 29.296875 29.296875zm0 0"/><path d="m939.386719 408.136719h-292.96875c-32.359375 0-58.59375 26.234375-58.59375 58.59375v355.46875h410.15625v-355.46875c0-32.359375-26.230469-58.59375-58.59375-58.59375zm-67.089844 297.976562-58.496094 59.484375c-5.515625 5.597656-13.035156 8.75-20.894531 8.75-7.847656 0-15.371094-3.152344-20.878906-8.75l-58.519532-59.472656c-11.339843-11.539062-11.1875-30.078125.339844-41.433594 11.539063-11.347656 30.078125-11.195312 41.429688.332032l37.628906 38.25 37.617188-38.238282c11.34375-11.539062 29.886718-11.691406 41.425781-.34375 11.53125 11.339844 11.6875 29.890625.347656 41.421875zm-.347656-118.984375c-11.539063 11.34375-30.082031 11.191406-41.425781-.339844l-37.617188-38.242187-37.628906 38.246094c-5.734375 5.828125-13.304688 8.75-20.878906 8.75-7.421876 0-14.847657-2.796875-20.546876-8.414063-11.53125-11.34375-11.683593-29.898437-.332031-41.425781l58.507813-59.476563c5.507812-5.605468 13.03125-8.753906 20.878906-8.753906 7.859375 0 15.378906 3.164063 20.894531 8.753906l58.496094 59.476563c11.339844 11.535156 11.183594 30.082031-.347656 41.425781zm0 0"/><path d="m587.824219 939.386719c0 32.363281 26.234375 58.59375 58.59375 58.59375h292.96875c32.363281 0 58.59375-26.230469 58.59375-58.59375v-58.59375h-410.15625zm0 0"/></svg>