<svg height="512pt" viewBox="0 0 512 512" width="512pt" xmlns="http://www.w3.org/2000/svg"><path d="m467 180h-14v-150h16c8.285156 0 15-6.714844 15-15s-6.714844-15-15-15h-454c-8.285156 0-15 6.714844-15 15s6.714844 15 15 15h16v392h-16c-8.285156 0-15 6.714844-15 15 0 8.28125 6.714844 15 15 15h287v15c0 24.8125 20.1875 45 45 45h120c24.8125 0 45-20.1875 45-45v-242c0-24.8125-20.1875-45-45-45zm15 45v197h-148c-.679688 0-1.34375.0625-2 .148438v-197.148438c0-8.269531 6.730469-15 15-15h120c8.269531 0 15 6.730469 15 15zm-421-45v-30h362v30zm362-60h-362v-30h362zm-362 90h243.578125c-1.664063 4.695312-2.578125 9.742188-2.578125 15v15h-241zm362-180v30h-362v-30zm-362 392v-152h241v152zm406 60h-120c-8.269531 0-15-6.730469-15-15v-15.148438c.65625.089844 1.320312.148438 2 .148438h148v15c0 8.269531-6.730469 15-15 15zm0 0"/><path d="m407.050781 240c-4.023437 0-7.875 1.613281-10.695312 4.480469l-29.957031 30.449219c-5.8125 5.90625-5.734376 15.402343.171874 21.214843 2.917969 2.871094 6.71875 4.304688 10.519532 4.304688 3.878906 0 7.753906-1.496094 10.691406-4.476563l19.265625-19.582031 19.257813 19.578125c5.808593 5.90625 15.308593 5.984375 21.210937.175781 5.90625-5.808593 5.988281-15.304687.175781-21.210937l-29.949218-30.453125c-2.820313-2.867188-6.671876-4.480469-10.691407-4.480469zm0 0"/><path d="m426.304688 336.03125-19.257813 19.578125-19.265625-19.582031c-5.808594-5.90625-15.308594-5.980469-21.210938-.171875-5.90625 5.808593-5.984374 15.308593-.171874 21.210937l29.957031 30.453125c2.820312 2.867188 6.671875 4.480469 10.695312 4.480469 4.019531 0 7.871094-1.617188 10.691407-4.480469l29.949218-30.453125c5.8125-5.90625 5.730469-15.402344-.171875-21.210937-5.910156-5.808594-15.40625-5.730469-21.214843.175781zm0 0"/></svg>