<svg height="511pt" viewBox="0 -13 511.99933 511" width="511pt" xmlns="http://www.w3.org/2000/svg"><path d="m124.917969 447.683594c1.601562 3.964844 5.417969 6.375 9.445312 6.375 1.269531 0 2.558594-.238282 3.808594-.742188 5.214844-2.105468 7.734375-8.039062 5.632813-13.253906l-.070313-.171875c-2.101563-5.210937-8.039063-7.734375-13.25-5.628906-5.21875 2.101562-7.738281 8.035156-5.632813 13.253906zm0 0"/><path d="m111.695312 53.128906h45.261719c5.625 0 10.183594-4.558594 10.183594-10.179687 0-5.625-4.558594-10.183594-10.183594-10.183594h-45.261719c-5.625 0-10.183593 4.558594-10.183593 10.183594 0 5.621093 4.558593 10.179687 10.183593 10.179687zm0 0"/><path d="m192.292969 198.558594c-11.921875-12.480469-33.589844-19.933594-57.964844-19.933594-24.378906 0-46.046875 7.453125-57.96875 19.9375-3.882813 4.066406-3.730469 10.511719.335937 14.398438 1.972657 1.882812 4.503907 2.816406 7.03125 2.816406 2.683594 0 5.363282-1.058594 7.363282-3.152344 7.910156-8.28125 24.882812-13.636719 43.238281-13.636719s35.328125 5.355469 43.234375 13.636719c3.882812 4.066406 10.332031 4.214844 14.394531.332031 4.070313-3.882812 4.21875-10.328125.335938-14.398437zm0 0"/><path d="m134.328125 222.796875c-15.824219 0-30.019531 4.972656-37.972656 13.304687-3.882813 4.066407-3.734375 10.511719.335937 14.394532 1.972656 1.882812 4.5 2.816406 7.027344 2.816406 2.6875 0 5.367188-1.054688 7.367188-3.148438 3.328124-3.488281 11.804687-7.003906 23.242187-7.003906 11.433594 0 19.910156 3.515625 23.238281 7.003906 3.882813 4.066407 10.332032 4.214844 14.394532.332032 4.070312-3.886719 4.21875-10.332032.335937-14.398438-7.957031-8.328125-22.148437-13.300781-37.96875-13.300781zm0 0"/><path d="m144.683594 272.71875c-2.109375-5.210938-8.042969-7.730469-13.257813-5.621094-5.214843 2.105469-7.730469 8.039063-5.625 13.253906l.078125.191407c1.601563 3.964843 5.417969 6.371093 9.445313 6.371093 1.269531 0 2.5625-.238281 3.8125-.746093 5.214843-2.105469 7.730469-8.039063 5.625-13.253907zm0 0"/><path d="m81.945312 84.15625c5.214844-2.101562 7.746094-8.03125 5.648438-13.246094l-.078125-.195312c-2.097656-5.214844-8.023437-7.742188-13.246094-5.648438-5.21875 2.097656-7.746093 8.027344-5.648437 13.246094l.078125.191406c1.597656 3.972656 5.414062 6.386719 9.449219 6.386719 1.265624 0 2.550781-.234375 3.796874-.734375zm0 0"/><path d="m511.804688 257.3125c-1.109376-10.765625-6.945313-20.339844-16.003907-26.265625l-126.507812-82.75c-10.328125-6.757813-23.675781-6.757813-34.003907 0l-54.621093 35.730469c-.042969.027344-.085938.054687-.128907.082031l-14.992187 10.128906v-155.132812c0-21.285157-17.316406-38.605469-38.605469-38.605469h-188.335937c-21.289063 0-38.605469 17.316406-38.605469 38.605469v408.105469c0 21.167968 16.390625 38.390624 36.535156 38.390624h181.03125c.882813 0 1.730469-.125 2.546875-.335937.816407.210937 1.664063.335937 2.546875.335937h259.265625c5.621094 0 10.179688-4.5625 10.179688-10.183593v-179.714844l9.410156-9.40625c7.65625-7.65625 11.40625-18.21875 10.289063-28.984375zm-299.328126 207.921875h-174.085937c-9.941406 0-18.027344-8.085937-18.027344-18.023437v-25.390626h192.113281zm0-63.777344h-192.113281v-316.664062h17.652344c5.625 0 10.183594-4.558594 10.183594-10.183594 0-5.621094-4.558594-10.179687-10.183594-10.179687h-17.652344v-25.324219c0-10.058594 8.183594-18.242188 18.242188-18.242188h188.339843c10.054688 0 18.238282 8.183594 18.238282 18.242188v25.324219h-126.726563c-5.625 0-10.183593 4.558593-10.183593 10.179687 0 5.625 4.558593 10.183594 10.183593 10.183594h126.726563v120.921875c0 .730468.082031 1.4375.226562 2.125l-33.855468 22.871094c-9.902344 6.507812-16.527344 17.289062-17.722657 28.851562-1.058593 10.222656 2.222657 19.71875 9.238281 26.734375l9.40625 9.410156zm259.265626 63.777344h-238.898438v-168.316406l113.488281-76.140625c3.621094-2.429688 8.300781-2.429688 11.921875 0l113.488282 76.140625zm15.375-193.339844-6.472657 6.472657-111.046875-74.5c-.65625-.441407-1.328125-.855469-2.007812-1.238282-4.753906-2.699218-10.027344-4.050781-15.296875-4.050781-6.023438 0-12.050781 1.761719-17.304688 5.289063l-111.050781 74.5-6.46875-6.472657c-3.328125-3.328125-3.675781-7.402343-3.382812-10.238281.566406-5.472656 3.894531-10.816406 8.683593-13.949219.042969-.027343.085938-.054687.125-.082031l68.984375-46.597656 54.558594-35.6875c3.558594-2.328125 8.152344-2.328125 11.710938-.003906l126.507812 82.753906c3.902344 2.550781 6.417969 6.675781 6.894531 11.316406.480469 4.636719-1.136719 9.191406-4.433593 12.488281zm0 0"/><path d="m318.289062 278.15625c0 19.085938 15.527344 34.613281 34.613282 34.613281 19.085937 0 34.613281-15.527343 34.613281-34.613281s-15.527344-34.613281-34.613281-34.613281c-19.085938 0-34.613282 15.527343-34.613282 34.613281zm48.863282 0c0 7.859375-6.390625 14.25-14.25 14.25s-14.25-6.390625-14.25-14.25c0-7.855469 6.390625-14.246094 14.25-14.246094s14.25 6.390625 14.25 14.246094zm0 0"/><path d="m331.53125 325.953125h-70c-5.625 0-10.183594 4.5625-10.183594 10.183594v105.300781c0 5.625 4.558594 10.183594 10.183594 10.183594h70c5.625 0 10.183594-4.558594 10.183594-10.183594v-18.789062c0-5.625-4.558594-10.183594-10.183594-10.183594-5.621094 0-10.179688 4.558594-10.179688 10.183594v8.609374h-49.640624v-84.9375h50.089843c1.285157 4.152344 5.15625 7.171876 9.730469 7.171876 5.625 0 10.183594-4.558594 10.183594-10.183594v-7.171875c0-5.621094-4.558594-10.183594-10.183594-10.183594zm0 0"/><path d="m362.003906 336.136719v105.300781c0 5.625 4.558594 10.183594 10.179688 10.183594h70.003906c5.621094 0 10.179688-4.558594 10.179688-10.183594v-105.300781c0-5.621094-4.558594-10.183594-10.179688-10.183594h-70.003906c-5.621094 0-10.179688 4.5625-10.179688 10.183594zm20.363282 10.183593h49.636718v84.9375h-49.636718zm0 0"/><path d="m326.964844 373.714844c-5.214844 2.101562-7.738282 8.039062-5.632813 13.253906l.066407.167969c1.601562 3.96875 5.417968 6.375 9.445312 6.375 1.269531 0 2.5625-.238281 3.808594-.742188 5.214844-2.101562 7.738281-8.035156 5.632812-13.253906l-.070312-.167969c-2.101563-5.214844-8.035156-7.738281-13.25-5.632812zm0 0"/></svg>